<?xml version="1.0" encoding="UTF-8"?>
<svg width="21px" height="24px" viewBox="0 0 21 24" version="1.1" xmlns="http://www.w3.org/2000/svg" xmlns:xlink="http://www.w3.org/1999/xlink">
    <title>bell</title>
    <defs>
        <filter id="filter-1">
            <feColorMatrix in="SourceGraphic" type="matrix" values="0 0 0 0 0.378199 0 0 0 0 0.378199 0 0 0 0 0.378199 0 0 0 1.000000 0"></feColorMatrix>
        </filter>
    </defs>
    <g id="Page-1" stroke="none" stroke-width="1" fill="none" fill-rule="evenodd">
        <g id="bell" transform="translate(-1320.000000, -48.000000)" filter="url(#filter-1)">
            <g transform="translate(1320.500000, 48.000000)">
                <path d="M9.99993895,24 C7.93194581,24 6.24993895,22.3179932 6.24993895,20.25 C6.24993895,19.8359985 6.5859375,19.5 6.99993895,19.5 C7.41394041,19.5 7.74993895,19.8359985 7.74993895,20.25 C7.74993895,21.4910888 8.7590332,22.5 9.99993895,22.5 C11.2410278,22.5 12.249939,21.4910888 12.249939,20.25 C12.249939,19.8359985 12.5859375,19.5 12.999939,19.5 C13.4139404,19.5 13.749939,19.8359985 13.749939,20.25 C13.749939,22.3179932 12.0679321,24 9.99993895,24 L9.99993895,24 Z" id="Path" fill="#000000" fill-rule="nonzero"></path>
                <path d="M18.249939,21 L1.74993895,21 C0.784973156,21 -1.33226763e-15,20.2150268 -1.33226763e-15,19.250061 C-1.33226763e-15,18.7379151 0.223022437,18.2530518 0.6119385,17.9199829 C2.13299559,16.6349487 3,14.7670898 3,12.7880859 L3,9.99993895 C3,6.14007567 6.14007567,3 9.99993895,3 C13.8599854,3 17.000061,6.14007567 17.000061,9.99993895 L17.000061,12.7880859 C17.000061,14.7670898 17.8670654,16.6349487 19.3780518,17.9130249 C19.7770386,18.2530518 20.000061,18.7379151 20.000061,19.250061 C20.000061,20.2150268 19.2150879,21 18.249939,21 Z M9.99993895,4.5 C6.96697997,4.5 4.5,6.96697997 4.5,9.99993895 L4.5,12.7880859 C4.5,15.2089233 3.43908694,17.4949951 1.59008789,19.0579834 C1.55493164,19.0880127 1.5,19.1500854 1.5,19.250061 C1.5,19.3859253 1.61407472,19.5 1.74993895,19.5 L18.249939,19.5 C18.3859863,19.5 18.500061,19.3859253 18.500061,19.250061 C18.500061,19.1500854 18.4449463,19.0880127 18.4119873,19.0599975 C16.5609741,17.4949951 15.500061,15.2089233 15.500061,12.7880859 L15.500061,9.99993895 C15.500061,6.96697997 13.033081,4.5 9.99993895,4.5 Z" id="Shape" fill="#000000" fill-rule="nonzero"></path>
                <path d="M9.99993895,4.5 C9.5859375,4.5 9.24993895,4.16400145 9.24993895,3.75 L9.24993895,0.75 C9.24993895,0.335998547 9.5859375,0 9.99993895,0 C10.4139404,0 10.749939,0.335998547 10.749939,0.75 L10.749939,3.75 C10.749939,4.16400145 10.4139404,4.5 9.99993895,4.5 Z" id="Path" fill="#000000" fill-rule="nonzero"></path>
            </g>
        </g>
    </g>
</svg>